<?xml version="1.0" standalone="no"?>
<!DOCTYPE svg PUBLIC "-//W3C//DTD SVG 20010904//EN"
 "http://www.w3.org/TR/2001/REC-SVG-20010904/DTD/svg10.dtd">
<svg version="1.0" xmlns="http://www.w3.org/2000/svg"
 width="1000.000000pt" height="1000.000000pt" viewBox="0 0 1000.000000 1000.000000"
 preserveAspectRatio="xMidYMid meet">
<metadata>
Created by potrace 1.11, written by Peter Selinger 2001-2013
</metadata>
<g transform="translate(0.000000,1000.000000) scale(0.100000,-0.100000)"
fill="#000000" stroke="none">
<path d="M4103 6773 c-114 -19 -182 -49 -238 -107 -68 -69 -96 -150 -96 -281
0 -193 67 -312 207 -365 189 -71 498 -55 629 33 36 25 81 73 100 107 56 106
57 316 1 434 -17 37 -71 96 -106 118 -105 64 -323 91 -497 61z"/>
<path d="M492 6154 l0 -331 534 1 534 1 0 -1305 0 -1305 423 0 c232 -1 424 2
427 6 3 4 5 590 5 1303 0 1146 2 1296 15 1297 8 0 247 1 531 1 l516 0 0 329
c0 181 -3 329 -6 330 -3 0 -675 1 -1493 2 l-1486 2 0 -331z"/>
<path d="M6670 5719 c-264 -55 -467 -211 -593 -455 -9 -19 -19 -34 -21 -34 -2
0 -4 30 -5 68 -2 37 -4 96 -6 132 -3 36 -7 107 -9 159 -3 51 -7 95 -9 98 -4 4
-412 6 -667 4 l-85 -1 0 -1237 0 -1238 423 0 422 0 1 695 c0 382 2 715 5 740
30 271 199 445 431 443 135 -1 228 -54 279 -158 51 -105 52 -121 52 -908 1
-403 1 -750 1 -772 l1 -40 420 0 420 0 0 45 c0 25 2 356 4 735 3 754 3 748 64
873 52 108 168 199 277 218 74 14 178 6 231 -16 55 -24 118 -80 139 -125 53
-111 50 -59 53 -915 1 -437 4 -800 6 -805 4 -11 814 -14 831 -3 7 4 10 302 9
890 -1 900 -2 907 -37 1063 -11 47 -62 160 -97 214 -85 132 -228 244 -377 297
-114 40 -203 52 -358 49 -204 -4 -315 -34 -479 -128 -94 -54 -230 -190 -286
-285 l-43 -72 -37 74 c-93 188 -243 312 -455 376 -91 28 -119 32 -270 35 -111
3 -160 -1 -235 -16z"/>
<path d="M3847 5688 c-9 -5 -12 -299 -10 -1230 1 -672 2 -1228 2 -1233 1 -7
146 -10 419 -10 l417 0 3 1238 c2 1173 1 1237 -15 1238 -113 4 -807 2 -816 -3z"/>
</g>
</svg>
